<?xml version="1.0" encoding="utf-8"?>
<!-- Generator: Adobe Illustrator 24.1.1, SVG Export Plug-In . SVG Version: 6.00 Build 0)  -->
<svg version="1.1" id="Layer_1" xmlns="http://www.w3.org/2000/svg" xmlns:xlink="http://www.w3.org/1999/xlink" x="0px" y="0px"
	 viewBox="0 0 4001 4000" style="enable-background:new 0 0 4001 4000;" xml:space="preserve">
<style type="text/css">
	.st0{fill:#04A4FA;}
</style>
<g transform="translate(0.000000,4000.000000) scale(0.100000,-0.100000)">
	<g>
		<path class="st0" d="M3670,35195v-1135h260h260v875v875h15810h15810V23690V11570h260h260v12380v12380H20000H3670V35195z"/>
		<path class="st0" d="M3670,14490V3670h16330h16330v1745v1745h-260h-260V5675V4190H20000H4190v10560v10560h-260h-260V14490z"/>
		<path class="st0" d="M10069,18508c-12-24-80-157-151-295l-130-253h185h185l191,289c105,159,191,292,191,295s-101,6-225,6h-225
			L10069,18508z"/>
		<path class="st0" d="M21125,17790c-233-25-452-104-645-233c-105-70-273-242-348-355c-215-324-303-747-247-1179
			c87-659,487-1113,1098-1245c137-29,451-32,597-5c279,52,520,177,715,372c162,161,270,338,346,565c63,190,82,319,82,565
			c0,172-4,231-22,329c-81,447-320,804-676,1009C21772,17760,21444,17824,21125,17790z M21555,17265c143-42,237-96,336-195
			c196-194,289-450,289-795c0-158-18-284-56-407c-104-329-329-540-643-603c-65-14-116-16-225-12c-167,6-247,26-378,93
			c-311,161-486,535-465,993c25,529,286,871,725,951c26,5,110,7,187,5C21440,17293,21481,17287,21555,17265z"/>
		<path class="st0" d="M12935,17774c-586-90-1010-505-1134-1109c-82-395-30-868,128-1184c166-328,410-541,754-656
			c261-87,602-99,887-30c374,91,687,331,849,653c33,65,94,240,105,300l6,32h-269h-269l-23-57c-84-213-260-366-504-439
			c-73-21-117-27-233-31c-247-9-415,41-583,175c-245,194-377,571-340,972c43,468,277,780,652,870c222,53,441,31,634-64
			c179-88,287-213,374-428l11-28h271h271l-7,43c-13,79-56,212-96,296c-170,363-505,608-934,681C13345,17794,13076,17796,12935,17774
			z"/>
		<path class="st0" d="M5600,16275v-1475h255h255l2,1038l3,1037l690-1037l690-1038h258h257v1475v1475h-255h-255v-1042
			c0-871-2-1040-13-1028c-8,8-319,477-693,1042l-679,1028h-257h-258V16275z"/>
		<path class="st0" d="M8800,16773c0-649,4-1008,11-1068c53-436,295-748,684-882c247-85,583-96,851-28c450,114,738,460,784,943
			c6,64,10,494,10,1060v952h-260h-260v-956c0-652-4-978-11-1027c-40-259-186-426-429-493c-91-25-329-26-420-1
			c-213,57-340,178-412,392l-23,70l-3,1008l-3,1007h-259h-260V16773z"/>
		<path class="st0" d="M15150,16275v-1475h875h875v235v235l-612,2l-613,3l-3,1238l-2,1237h-260h-260V16275z"/>
		<path class="st0" d="M17490,16275v-1475h915h915v235v235l-657,2l-658,3v390v390l588,3l587,2v225v225h-590h-590v380v380h660h660
			v240v240h-915h-915V16275z"/>
		<path class="st0" d="M8830,13175c-365-52-625-223-760-500c-68-138-84-226-77-409c6-160,20-224,77-341c74-152,187-261,363-350
			c118-60,196-83,560-165c170-38,333-80,362-94c165-75,240-246,186-424c-39-131-156-226-327-269c-98-24-334-24-423,1
			c-89,24-155,60-213,114c-59,55-92,115-108,200l-13,62h-255h-255l6-84c7-104,52-243,109-341c49-84,189-226,270-273
			c134-79,288-131,456-153c114-15,432-6,527,16c202,45,377,131,499,245c146,136,234,318,255,529c19,183-16,381-89,508
			s-219,247-384,316c-110,46-178,64-491,132c-143,31-282,63-310,72c-173,55-259,145-286,297c-21,124,18,243,109,328
			c58,55,101,78,202,109c99,31,293,33,385,5c167-50,268-158,298-318l11-58h258h259l-6,58c-12,99-36,204-62,270
			c-28,69-102,185-155,244C9607,13122,9221,13230,8830,13175z"/>
		<path class="st0" d="M31240,13179c-375-48-651-222-786-494c-58-118-75-185-81-326c-20-416,176-702,577-843c41-14,223-60,403-101
			c328-74,410-100,470-151c83-70,122-169,115-289c-11-173-127-293-338-351c-82-23-327-26-410-5c-99,24-193,76-248,136
			c-50,55-92,141-92,190c0,57,10,55-268,55h-255l6-77c29-359,286-643,672-742c122-31,206-41,372-41c287,0,495,51,682,167
			c192,120,320,294,373,512c27,110,29,318,5,430c-58,261-243,446-552,549c-49,16-218,58-375,91c-157,34-307,69-335,78
			c-192,60-287,178-287,358c-1,192,115,324,332,382c91,24,284,24,365-1c171-51,280-171,302-332l6-44h258c240,0,259,1,259,18
			c0,9-7,60-15,112c-61,406-352,663-815,720C31483,13192,31335,13191,31240,13179z"/>
		<path class="st0" d="M5600,11665v-1475h915h915v235v235h-655h-655v395v395h590h590v225v225h-590h-590v380v380h655h655v240v240
			h-915h-915V11665z"/>
		<path class="st0" d="M10410,12900v-240h430h430v-1235v-1235h260h260v1235v1235h430h430v240v240h-1120h-1120V12900z"/>
		<path class="st0" d="M13192,12088l3-1053l27-96c56-203,125-333,247-461c228-241,543-352,951-335c581,25,948,311,1077,842
			c15,63,17,173,20,1113l4,1042h-261h-260v-982c0-950-1-986-20-1067c-53-220-187-360-405-423c-105-30-333-32-435-4
			c-217,59-351,193-413,413c-22,78-22,83-25,1071l-3,992h-255h-255L13192,12088z"/>
		<path class="st0" d="M16320,11664v-1475l643,4c704,4,703,4,904,68c321,102,586,314,755,603c182,311,244,756,162,1155
			c-56,268-178,503-361,692c-242,249-548,387-931,419c-64,5-354,10-644,10h-528V11664z M17465,12650c148-22,282-66,393-132
			c80-46,220-189,270-274c111-187,164-448,142-700c-33-373-201-644-485-781c-174-83-330-106-710-101l-240,3l-3,998l-2,997h282
			C17268,12660,17427,12655,17465,12650z"/>
		<path class="st0" d="M20091,13118c-48-128-1051-2912-1051-2919c0-6,104-8,268-7l267,3l116,335l117,335l550,3l549,2l92-262
			c51-145,104-298,119-340l27-78h273c149,0,272,2,272,4s-232,647-516,1432c-284,786-523,1448-531,1472l-15,42h-264h-264L20091,13118
			z M20384,12378c10-40,99-297,196-570l177-498h-395c-371,0-394,1-390,18c3,9,83,238,177,507c95,270,180,518,189,553
			c9,34,19,62,22,62S20374,12417,20384,12378z"/>
		<path class="st0" d="M22220,11665v-1475h255h255v1035c0,569,3,1035,8,1035c4-1,315-466,692-1035l685-1034l258-1h257v1475v1475
			h-255h-255l-2-1042l-3-1041l-689,1041l-690,1042h-258h-258V11665z"/>
		<path class="st0" d="M25190,12900v-240h430h430v-1235v-1235h255h255v1235v1235h435h435v240v240h-1120h-1120V12900z"/>
		<path class="st0" d="M27980,11665v-1475h920h920v235v235l-657,2l-658,3v390v390l588,3l587,2v225v225h-590h-590v380v380h660h660
			v240v240h-920h-920V11665z"/>
		<path class="st0" d="M23547,9042c-81-159-147-292-147-295c0-4,81-7,180-7h180l188,283c104,155,192,288,196,295c6,9-41,12-221,12
			h-228L23547,9042z"/>
		<path class="st0" d="M13705,8574c-742-80-1234-636-1272-1438c-28-595,212-1112,645-1391c142-91,305-154,497-192
			c140-27,434-25,583,5c694,139,1132,719,1132,1497c0,777-440,1361-1127,1495C14058,8571,13801,8584,13705,8574z M14107,8051
			c338-98,548-353,620-755c22-123,21-361-1-486c-38-213-120-389-244-521c-176-188-380-267-661-256c-139,5-207,18-313,61
			c-190,77-352,241-439,448c-114,266-128,646-34,932c106,326,342,539,657,595C13782,8086,14024,8075,14107,8051z"/>
		<path class="st0" d="M30095,8564c-368-53-662-208-873-460c-217-258-330-573-348-972c-15-310,48-636,167-874
			c188-375,508-615,931-700c163-32,463-32,625,0c502,101,868,413,1006,857c13,44,27,95,30,113l7,32h-271h-271l-6-22
			c-3-13-23-59-45-103c-32-63-59-99-131-170c-104-103-193-156-341-201c-83-25-104-28-265-28c-154-1-184,2-255,22
			c-368,106-589,404-635,856c-34,324,43,638,206,853c211,276,613,384,979,262c213-71,370-219,454-426l28-68l272-3l273-2l-7,42
			c-24,146-98,325-191,464c-135,204-372,379-624,462c-159,53-234,64-465,67C30224,8567,30112,8566,30095,8564z"/>
		<path class="st0" d="M5600,7055V5580h260h260v1475v1475h-260h-260V7055z"/>
		<path class="st0" d="M6930,7055V5580h255h255l2,1040l3,1041l690-1040l690-1040l258-1h257v1475v1475h-255h-255l-2-1042l-3-1042
			l-690,1042l-689,1042h-258h-258V7055z"/>
		<path class="st0" d="M10150,7055V5580h260h260v600v600h550h550v235v235h-550h-550v400v400h655h655v240v240h-915h-915V7055z"/>
		<path class="st0" d="M15930,7056V5580h260h260v550v550l317-2l316-3l247-545l247-545l282-3c154-1,281,1,281,6c0,4-124,275-275,601
			c-151,327-274,595-273,596c2,1,38,20,81,43c202,108,328,253,396,458c54,163,64,373,26,554c-62,295-263,515-563,616
			c-195,65-217,67-944,72l-658,4V7056z M17239,8046c92-24,175-71,231-133c110-120,138-324,69-507c-27-73-109-163-187-204
			c-106-57-149-62-544-62h-358v466v466l363-5C17108,8064,17187,8060,17239,8046z"/>
		<path class="st0" d="M18800,7055V5580h251h252l-6,818c-3,449-11,864-16,921c-6,58-9,106-8,107s166-413,367-919l366-922l241-3
			l241-2l357,897c197,494,364,912,371,928l14,30l-6-40c-3-22-8-439-11-927l-4-888h250h251v1475v1475l-256-2l-256-3l-469-1155
			c-257-635-471-1161-476-1168c-5-8-179,410-482,1158l-475,1170h-248h-248V7055z"/>
		<path class="st0" d="M22773,7058l-531-1473l266-3c184-2,268,1,272,9c4,6,58,159,121,340l114,329h550h550l115-331
			c63-182,118-335,121-340c3-6,116-8,276-7l271,3l-524,1450c-288,798-528,1460-533,1473l-11,22h-262h-263L22773,7058z M23598,7744
			c16-54,104-310,196-568s165-470,163-472c-2-3-179-3-394-2l-390,3l178,505c98,278,185,536,195,573c9,37,18,66,20,64
			S23583,7799,23598,7744z"/>
		<path class="st0" d="M24910,8290v-240h430h430V6815V5580h260h260v1235v1235h430h430v240v240h-1120h-1120V8290z"/>
		<path class="st0" d="M27710,7055V5580h260h260v1475v1475h-260h-260V7055z"/>
		<path class="st0" d="M32915,8513c-16-41-1048-2900-1052-2915c-5-17,12-18,263-18h269l27,78c15,42,69,195,119,340l92,262l549-2
			l550-3l117-335l117-335l272-3c150-1,272,1,272,5c0,5-238,667-529,1473l-529,1465l-265,3C32942,8530,32922,8529,32915,8513z
			 M33413,7165l165-460l-391-3c-214-1-392-1-394,1s78,235,177,518s187,541,196,573l16,59l34-114C33234,7676,33323,7418,33413,7165z"
			/>
	</g>
</g>
</svg>
